<svg xmlns="http://www.w3.org/2000/svg" width="800" height="800" fill="none" viewBox="0 0 24 24">
  <path fill="#323232" d="M3 6.4V16c0 1 0 1.4.2 1.8.2.5.5.8 1 1 .4.2.9.2 1.8.2h12c1 0 1.4 0 1.8-.2a2 2 0 0 0 1-1c.2-.4.2-.9.2-1.8V6.4l-.3.4-6.7 5.8a3 3 0 0 1-4 0L3.3 6.8a1 1 0 0 1-.2-.4Z" opacity=".1"/>
  <path stroke="#323232" stroke-linejoin="round" stroke-width="2" d="M3 8c0-1 0-1.4.2-1.8a2 2 0 0 1 1-1C4.6 5 5.1 5 6 5h12c1 0 1.4 0 1.8.2.5.2.8.5 1 1 .2.4.2.9.2 1.8v8c0 1 0 1.4-.2 1.8a2 2 0 0 1-1 1c-.4.2-.9.2-1.8.2H6c-1 0-1.4 0-1.8-.2a2 2 0 0 1-1-1C3 17.4 3 16.9 3 16V8Z"/>
  <path stroke="#323232" stroke-linecap="round" stroke-linejoin="round" stroke-width="2" d="m4 6 6.7 5.8a2 2 0 0 0 2.6 0L20 6"/>
</svg>
